<!-- Generated by IcoMoon.io -->
<svg version="1.1" xmlns="http://www.w3.org/2000/svg" width="57" height="32" viewBox="0 0 57 32">
  <title>digital-album</title>
  <path fill="#d81e06"
    d="M28.447 8.729c0.432 0.047 0.865 0.080 1.294 0.148 0.183 0.029 0.367 0.113 0.529 0.208 0.313 0.183 0.413 0.449 0.327 0.777-0.079 0.301-0.338 0.516-0.673 0.521-0.225 0.003-0.452-0.025-0.676-0.055-1.884-0.247-3.533 0.276-4.886 1.596-1.422 1.388-1.993 3.103-1.68 5.074 0.359 2.261 1.68 3.816 3.789 4.565 2.035 0.722 3.985 0.387 5.688-1.036 0.991-0.828 1.62-1.882 1.93-3.122 0.105-0.419 0.122-0.86 0.171-1.292 0.052-0.46 0.367-0.774 0.775-0.755 0.409 0.019 0.707 0.353 0.704 0.816-0.011 1.78-0.624 3.336-1.765 4.69-1.078 1.279-2.445 2.098-4.082 2.409-2.389 0.455-4.537-0.097-6.359-1.731-1.787-1.604-2.589-3.64-2.434-6.027 0.108-1.673 0.768-3.127 1.911-4.363 0.783-0.847 1.699-1.504 2.778-1.9 0.851-0.312 1.728-0.552 2.658-0.523z">
  </path>
  <path fill="#d81e06"
    d="M25.475 16.073c-0.045-1.484 1.311-2.931 2.967-2.919 1.594 0.011 2.909 1.337 2.908 2.952-0.001 1.623-1.313 2.924-2.951 2.925-1.598 0.002-2.921-1.337-2.924-2.958zM28.404 17.503c0.862 0.065 1.429-0.761 1.425-1.414-0.005-0.779-0.601-1.401-1.374-1.413-0.801-0.012-1.48 0.633-1.488 1.407-0.007 0.704 0.673 1.485 1.437 1.419zM33.175 11.337c-0.085 0.387-0.169 0.773-0.256 1.16-0.055 0.246-0.102 0.495-0.172 0.737-0.115 0.396-0.415 0.577-0.793 0.497-0.324-0.069-0.523-0.407-0.445-0.801 0.124-0.632 0.266-1.261 0.4-1.891 0.096-0.451 0.192-0.903 0.291-1.353 0.026-0.119 0.055-0.239 0.098-0.352 0.097-0.255 0.241-0.477 0.54-0.506 0.292-0.028 0.503 0.132 0.646 0.368 0.369 0.611 0.725 1.23 1.089 1.845 0.055 0.094 0.12 0.183 0.225 0.341 0.067-0.161 0.121-0.253 0.143-0.353 0.096-0.442 0.177-0.888 0.277-1.329 0.032-0.142 0.090-0.284 0.163-0.41 0.151-0.258 0.431-0.366 0.692-0.288 0.278 0.082 0.445 0.3 0.443 0.605-0.001 0.147-0.027 0.295-0.057 0.439-0.219 1.039-0.443 2.078-0.663 3.117-0.056 0.263-0.159 0.495-0.388 0.657-0.176 0.125-0.369 0.163-0.529 0.016-0.189-0.173-0.37-0.369-0.504-0.586-0.356-0.578-0.683-1.174-1.023-1.762-0.030-0.051-0.067-0.098-0.1-0.147l-0.076-0.003z">
  </path>
</svg>