<!-- Generated by IcoMoon.io -->
<svg version="1.1" xmlns="http://www.w3.org/2000/svg" width="57" height="32" viewBox="0 0 57 32">
  <title>focus-meditation</title>
  <path fill="#d81e06"
    d="M25.616 16.587c0.005-1.698 0.447-3.279 1.275-4.757 0.365-0.651 0.928-1.123 1.49-1.589 0.060-0.050 0.244-0.037 0.31 0.019 1.031 0.868 1.819 1.899 2.231 3.208 0.377 1.198 0.634 2.408 0.552 3.666-0.119 1.828-0.52 3.579-1.545 5.135-0.17 0.257-0.391 0.492-0.627 0.693-0.463 0.393-0.963 0.409-1.421 0.013-0.318-0.275-0.612-0.601-0.837-0.954-0.479-0.751-0.789-1.58-1.020-2.444-0.263-0.982-0.409-1.973-0.407-2.989z">
  </path>
  <path fill="#d81e06"
    d="M36.488 15.298c-0.008 2.315-0.808 4.321-2.385 6.010-0.633 0.678-1.429 1.131-2.265 1.513-0.284 0.13-0.576 0.245-0.868 0.357-0.173 0.067-0.375 0.074-0.468-0.097-0.055-0.101-0.024-0.288 0.034-0.403 0.461-0.91 0.871-1.833 1.114-2.833 0.336-1.385 0.444-2.778 0.301-4.193-0.042-0.419-0.008-0.46 0.397-0.601 1.085-0.379 2.197-0.598 3.35-0.595 0.156 0 0.312-0.022 0.468-0.031 0.209-0.012 0.333 0.066 0.324 0.299-0.008 0.191-0.002 0.383-0.002 0.574zM21.225 14.415c1.24-0.005 2.438 0.231 3.604 0.642 0.31 0.109 0.369 0.202 0.328 0.526-0.174 1.37-0.062 2.718 0.247 4.063 0.218 0.95 0.53 1.853 1 2.704 0.084 0.152 0.153 0.313 0.211 0.477 0.087 0.246-0.052 0.413-0.314 0.384-0.077-0.009-0.155-0.028-0.227-0.055-1.020-0.393-2.006-0.864-2.813-1.614-1.050-0.977-1.786-2.167-2.239-3.532-0.348-1.047-0.445-2.122-0.42-3.216 0.008-0.351 0.017-0.367 0.363-0.378 0.087-0.003 0.174-0.001 0.261-0.001z">
  </path>
</svg>