<!-- Generated by IcoMoon.io -->
<svg version="1.1" xmlns="http://www.w3.org/2000/svg" width="32" height="32" viewBox="0 0 32 32">
  <title>microphone</title>
  <path
    d="M25.44 15.648c0-0.384-0.32-0.704-0.704-0.704s-0.704 0.32-0.704 0.704c0 4.384-3.552 7.936-7.936 7.936s-7.936-3.552-7.936-7.936c0-0.384-0.32-0.704-0.704-0.704s-0.704 0.32-0.704 0.704c0 0.064 0.016 0.288 0.016 0.304 0.16 4.848 4.016 8.768 8.848 9.008v5.632h-3.504c-0.384 0-0.704 0.32-0.704 0.704s0.32 0.704 0.704 0.704h8.4c0.384 0 0.704-0.32 0.704-0.704s-0.32-0.704-0.704-0.704h-3.504v-5.648c4.608-0.464 8.224-4.288 8.384-8.976 0.032-0.032 0.048-0.256 0.048-0.32z">
  </path>
  <path
    d="M16.096 21.728c3.344 0 6.064-2.72 6.064-6.064v-9.344c0-3.344-2.72-6.064-6.064-6.064s-6.064 2.72-6.064 6.064v9.344c0 3.344 2.72 6.064 6.064 6.064z">
  </path>
</svg>