<!-- Generated by IcoMoon.io -->
<svg version="1.1" xmlns="http://www.w3.org/2000/svg" width="32" height="32" viewBox="0 0 32 32">
  <title>number-pen</title>
  <path fill="#e6ada7"
    d="M31.84 29.808c0 0.512-0.416 0.928-0.928 0.928h-29.824c-0.512 0-0.928-0.416-0.928-0.928s0.416-0.928 0.928-0.928h29.808c0.528 0 0.944 0.416 0.944 0.928zM3.584 26l2.016-7.264 17.216-17.216c0.8-0.8 1.84-0.784 2.624 0l3.936 3.936c0.784 0.784 0.8 1.824 0 2.624l-17.216 17.232-7.264 2.016c-0.992 0.192-1.52-0.32-1.312-1.328zM20.848 6.128l3.936 3.936 2.624-2.624c0.688-0.672 0.64-0.672 0-1.312l-2.624-2.624c-0.624-0.672-0.688-0.672-1.312 0l-2.624 2.624zM8.368 18.592l3.936 3.936 11.168-11.168-3.936-3.936-11.168 11.168zM5.568 25.328l5.424-1.488-3.936-3.936-1.488 5.424z">
  </path>
</svg>