<!-- Generated by IcoMoon.io -->
<svg version="1.1" xmlns="http://www.w3.org/2000/svg" width="57" height="32" viewBox="0 0 57 32">
  <title>personally-fm</title>
  <path fill="#d81e06"
    d="M24.682 6.681c0.237 0.021 0.474 0.060 0.711 0.062 2.825 0.013 5.649 0.014 8.474 0.032 0.996 0.006 1.993 0.034 2.988 0.079 1.928 0.086 4.148 1.769 4.773 3.721 0.279 0.872 0.46 1.811 0.479 2.723 0.060 2.956 0.045 5.915 0.023 8.872-0.023 3.084-2.008 5.468-5.019 6.077-0.242 0.049-0.494 0.062-0.742 0.062-5.483 0.003-10.966 0.011-16.449 0-3.478-0.007-6.113-2.637-6.133-6.124-0.018-3.157-0.022-6.314 0.003-9.47 0.018-2.354 1.108-4.154 3.173-5.207 1.62-0.827 3.361-1.421 5.065-2.075 2.791-1.071 5.596-2.108 8.397-3.152 0.403-0.15 0.817-0.284 1.237-0.377 0.595-0.132 0.999 0.084 1.169 0.57 0.156 0.447-0.012 0.921-0.525 1.153-0.937 0.423-1.895 0.802-2.859 1.161-1.524 0.568-3.061 1.104-4.591 1.656-0.059 0.021-0.112 0.061-0.168 0.092-0.003 0.050-0.005 0.098-0.006 0.147zM26.852 16.745c0.153-2.149-1.781-3.829-4.008-2.832-0.263 0.117-0.657 0.089-0.94-0.012-0.659-0.237-1.312-0.369-1.997-0.191-1.524 0.398-2.503 2.398-1.98 3.987 0.707 2.146 2.43 3.335 4.206 4.465 0.142 0.090 0.482 0.036 0.633-0.079 0.971-0.745 1.967-1.472 2.854-2.311 0.848-0.801 1.276-1.85 1.232-3.028zM33.397 18.937c-0.98 0-1.959-0.013-2.939 0.007-0.309 0.006-0.671 0.020-0.909 0.179-0.257 0.172-0.532 0.512-0.547 0.792-0.014 0.244 0.272 0.599 0.52 0.738 0.3 0.168 0.698 0.216 1.055 0.22 1.876 0.021 3.752 0.021 5.629 0.005 0.341-0.003 0.694-0.079 1.019-0.189 0.338-0.115 0.515-0.385 0.515-0.771 0-0.4-0.169-0.688-0.529-0.817-0.275-0.099-0.58-0.151-0.873-0.157-0.981-0.019-1.96-0.007-2.94-0.008zM33.245 14.829v0.002c-1.078 0-2.156-0.015-3.233 0.006-0.549 0.011-1.019 0.5-1.047 1.015-0.021 0.398 0.377 0.76 0.942 0.852 0.098 0.016 0.198 0.023 0.297 0.023 2.056 0.003 4.112 0.012 6.168 0.002 0.622-0.003 1.137-0.445 1.118-0.901-0.023-0.537-0.538-0.992-1.161-0.997-1.028-0.008-2.056-0.002-3.084-0.002z">
  </path>
</svg>