<!-- Generated by IcoMoon.io -->
<svg version="1.1" xmlns="http://www.w3.org/2000/svg" width="32" height="32" viewBox="0 0 32 32">
<title>recommend-everyday</title>
<path fill="#d81e06" d="M22.577 3.48h0.41c3.406 0 6.163 2.757 6.163 6.163v13.969c0 3.406-2.762 6.163-6.163 6.163h-13.97c-3.406 0-6.163-2.762-6.163-6.163v-13.97c0-3.406 2.762-6.163 6.163-6.163h0.41v-0.617c0-0.368 0.198-0.704 0.515-0.888s0.709-0.184 1.026 0 0.515 0.525 0.515 0.888v0.617h9.040v-0.617c0-0.368 0.198-0.704 0.515-0.888s0.709-0.184 1.026 0 0.515 0.525 0.515 0.888l-0.005 0.617zM22.577 5.533v0.617c0 0.368-0.198 0.704-0.515 0.888s-0.709 0.184-1.026 0-0.515-0.525-0.515-0.888v-0.617h-9.035v0.617c0 0.368-0.198 0.704-0.515 0.888s-0.709 0.184-1.026 0-0.515-0.525-0.515-0.888v-0.617h-0.41c-2.269 0-4.11 1.841-4.11 4.11h22.186c0-2.269-1.841-4.11-4.11-4.11h-0.405zM17.059 13.754l-5.164 6.656v1.643h5.105v2.265h1.643v-2.265h1.57v-1.376h-1.57v-6.923h-1.583zM16.953 15.94h0.046v4.732h-3.696l3.65-4.732z"></path>
<path fill="#d81e06" d="M9.52 11.978h14.189v14.915h-14.189z"></path>
</svg>
