<!-- Generated by IcoMoon.io -->
<svg version="1.1" xmlns="http://www.w3.org/2000/svg" width="57" height="32" viewBox="0 0 57 32">
  <title>song-list</title>
  <path fill="#d81e06"
    d="M16.829 15.817c0-2.251-0.017-4.502 0.004-6.753 0.022-2.34 1.772-4.38 4.072-4.761 0.56-0.093 1.135-0.128 1.703-0.129 4.052-0.008 8.104 0.005 12.156-0.002 1.807-0.003 3.372 0.508 4.499 2.006 0.759 1.008 1.085 2.167 1.088 3.414 0.011 4.262 0.029 8.524 0.004 12.786-0.013 2.263-1.304 4.227-3.207 4.874-0.741 0.252-1.549 0.424-2.329 0.431-4.171 0.040-8.344 0.045-12.516 0.003-2.155-0.021-3.902-0.864-4.952-2.86-0.357-0.679-0.518-1.404-0.519-2.165-0.003-2.281-0.001-4.562-0.001-6.843-0.001-0.001-0.002-0.001-0.003-0.001zM34.57 12.171c0.22 0.186 0.383 0.326 0.549 0.464 0.438 0.362 0.86 0.747 1.321 1.078 0.326 0.234 0.631 0.065 0.878-0.196 0.244-0.258 0.17-0.527-0.010-0.776-0.113-0.157-0.244-0.308-0.392-0.432-1.022-0.851-1.665-1.95-2.149-3.169-0.13-0.326-0.344-0.629-0.564-0.906-0.207-0.26-0.528-0.252-0.692 0.009-0.18 0.286-0.334 0.647-0.337 0.976-0.023 2.611-0.003 5.222-0.004 7.833 0 0.903 0.098 0.931-0.872 0.707-2.082-0.482-3.842 1.083-3.632 3.204 0.148 1.496 1.406 2.634 2.927 2.65 1.481 0.015 2.746-1.11 2.904-2.602 0.050-0.476 0.071-0.957 0.072-1.436 0.006-2.427 0.002-4.854 0.002-7.404zM26.046 11.717v-0.003c1.245 0 2.491 0.018 3.735-0.006 0.883-0.017 1.198-0.508 0.87-1.253-0.145-0.331-0.399-0.416-0.723-0.416-2.595 0.002-5.191 0.002-7.787 0.003-0.060 0-0.121 0.002-0.18 0.010-0.394 0.057-0.73 0.452-0.772 0.881-0.042 0.441 0.282 0.573 0.593 0.672 0.252 0.080 0.53 0.105 0.796 0.107 1.155 0.011 2.311 0.005 3.466 0.005zM25.53 16.411v0.006c1.018 0 2.036 0.004 3.055-0.002 0.511-0.003 0.949-0.416 0.955-0.881 0.005-0.387-0.397-0.74-0.913-0.742-2.066-0.005-4.133 0-6.199 0.020-0.192 0.002-0.46 0.080-0.555 0.217-0.145 0.209-0.273 0.524-0.222 0.752 0.084 0.38 0.388 0.629 0.825 0.629 1.018-0.001 2.036-0 3.054-0zM24.295 21.102v-0.012c0.644 0 1.289 0.024 1.931-0.008 0.471-0.023 0.694-0.281 0.71-0.704 0.020-0.527-0.187-0.81-0.67-0.894-0.206-0.035-0.416-0.060-0.625-0.061-1.018-0.006-2.037-0.006-3.055-0.002-0.547 0.002-0.975 0.432-0.968 0.955 0.006 0.405 0.38 0.709 0.925 0.721 0.583 0.013 1.167 0.003 1.751 0.003z">
  </path>
</svg>