<!-- Generated by IcoMoon.io -->
<svg version="1.1" xmlns="http://www.w3.org/2000/svg" width="32" height="32" viewBox="0 0 32 32">
  <title>wangyiyun</title>
  <path d="M0 16c0 8.837 7.163 16 16 16s16-7.163 16-16v0c0-8.837-7.163-16-16-16s-16 7.163-16 16v0z">
  </path>
  <path fill="#fff"
    d="M26.258 14.662c-0.305-1.058-0.777-1.979-1.395-2.784l0.015 0.020c-0.738-0.948-1.621-1.742-2.622-2.364l-0.042-0.024c-0.996-0.598-2.189-0.971-3.464-1.022l-0.014-0-0.51-1.914c-0.013-0.059-0.020-0.127-0.020-0.196 0-0.268 0.108-0.511 0.282-0.688l-0 0c0.222-0.249 0.53-0.417 0.878-0.455l0.006-0.001c0.518 0.013 0.995 0.182 1.388 0.461l-0.008-0.005c0.154 0.082 0.262 0.212 0.414 0.316 0.203 0.122 0.448 0.194 0.711 0.194 0.773 0 1.4-0.627 1.4-1.4 0-0.182-0.035-0.356-0.098-0.515l0.003 0.009c-0.123-0.277-0.312-0.505-0.547-0.673l-0.005-0.003c-0.611-0.478-1.337-0.84-2.128-1.038l-0.040-0.008c-0.305-0.081-0.656-0.127-1.018-0.127-0.4 0-0.786 0.057-1.152 0.162l0.029-0.007c-0.576 0.205-1.070 0.516-1.479 0.913l0.001-0.001c-0.41 0.343-0.746 0.761-0.99 1.234l-0.010 0.022c-0.238 0.483-0.377 1.052-0.377 1.654 0 0.396 0.060 0.778 0.172 1.137l-0.007-0.027 0.332 1.276c-1.588 0.433-2.913 1.373-3.824 2.632l-0.014 0.020c-0.662 0.976-1.057 2.18-1.057 3.476 0 0.118 0.003 0.234 0.010 0.35l-0.001-0.016c0.020 0.65 0.14 1.266 0.345 1.842l-0.013-0.042c0.369 1.062 1.055 1.935 1.942 2.531l0.018 0.011c0.687 0.444 1.526 0.708 2.427 0.708 0.313 0 0.619-0.032 0.914-0.093l-0.029 0.005c2.182-0.438 3.803-2.339 3.803-4.619 0-0.056-0.001-0.112-0.003-0.168l0 0.008-0.138-0.8c-0.29-1.118-0.6-2.222-0.87-3.328 0.438 0.1 0.824 0.253 1.18 0.453l-0.022-0.011c0.437 0.264 0.816 0.545 1.166 0.857l-0.008-0.007c0.808 0.703 1.416 1.614 1.743 2.651l0.011 0.041c0.172 0.573 0.271 1.232 0.271 1.914s-0.099 1.341-0.284 1.963l0.012-0.049c-0.144 0.475-0.323 0.887-0.542 1.272l0.016-0.030c-0.888 1.626-2.314 2.863-4.034 3.489l-0.052 0.017c-0.94 0.352-2.026 0.559-3.159 0.566h-0.003c-0.012 0-0.027 0-0.042 0-1.363 0-2.646-0.337-3.772-0.933l0.044 0.021c-1.908-1.044-3.366-2.708-4.122-4.716l-0.020-0.062c-0.367-0.947-0.58-2.042-0.58-3.188 0-0.428 0.030-0.848 0.087-1.26l-0.005 0.048c0.453-3.279 2.638-5.955 5.587-7.103l0.061-0.021c0.523-0.211 0.886-0.714 0.886-1.302 0-0.461-0.223-0.87-0.567-1.125l-0.004-0.003c-0.25-0.134-0.547-0.213-0.862-0.213-0.246 0-0.482 0.048-0.697 0.136l0.012-0.004c-3.523 1.462-6.133 4.502-6.971 8.214l-0.015 0.078c-0.184 0.783-0.289 1.682-0.289 2.606 0 3.252 1.307 6.199 3.425 8.344l-0.001-0.001c1.58 1.631 3.655 2.775 5.981 3.19l0.067 0.010c0.504 0.079 1.086 0.124 1.678 0.124s1.174-0.045 1.741-0.132l-0.063 0.008c1.715-0.204 3.264-0.773 4.615-1.627l-0.045 0.027c1.878-1.204 3.318-2.947 4.118-5.009l0.024-0.071c0.285-0.779 0.482-1.681 0.55-2.619l0.002-0.033c0.014-0.189 0.022-0.409 0.022-0.632 0-0.905-0.131-1.779-0.374-2.605l0.016 0.065zM16.234 17.548c-0.117 0.028-0.252 0.044-0.391 0.044-0.37 0-0.713-0.114-0.995-0.31l0.006 0.004c-0.469-0.358-0.8-0.877-0.91-1.473l-0.002-0.015c-0.050-0.241-0.078-0.517-0.078-0.8s0.028-0.559 0.083-0.827l-0.005 0.027c0.133-0.605 0.419-1.129 0.815-1.547l-0.001 0.002c0.528-0.527 1.189-0.92 1.929-1.125l0.031-0.007 0.952 3.6c0.049 0.175 0.093 0.391 0.123 0.612l0.003 0.026c-0.051 0.891-0.699 1.618-1.548 1.788l-0.012 0.002z">
  </path>
</svg>